<?xml version="1.0" standalone="no"?>
<!DOCTYPE svg PUBLIC "-//W3C//DTD SVG 20010904//EN"
 "http://www.w3.org/TR/2001/REC-SVG-20010904/DTD/svg10.dtd">
<svg version="1.0" xmlns="http://www.w3.org/2000/svg"
 width="2931.000000pt" height="2931.000000pt" viewBox="0 0 2931.000000 2931.000000"
 preserveAspectRatio="xMidYMid meet">
<metadata>
Created by potrace 1.14, written by Peter Selinger 2001-2017
</metadata>
<g transform="translate(0.000000,2931.000000) scale(0.100000,-0.100000)"
fill="#000000" stroke="none">
<path d="M14160 29299 c-1412 -50 -2711 -278 -4045 -709 -1304 -420 -2587
-1053 -3740 -1842 -1574 -1079 -2955 -2490 -3992 -4079 -1514 -2319 -2338
-4995 -2380 -7724 -25 -1674 203 -3228 707 -4805 396 -1239 1019 -2525 1751
-3615 950 -1416 2089 -2615 3444 -3625 1014 -757 2076 -1354 3255 -1833 1425
-578 2962 -930 4505 -1032 1067 -70 2133 -26 3173 130 1272 192 2481 539 3652
1048 1047 455 1997 1006 2915 1691 1747 1304 3178 2969 4197 4888 923 1735
1489 3658 1653 5613 71 849 68 1682 -10 2565 -226 2556 -1119 4995 -2603 7110
-1307 1862 -3091 3441 -5087 4503 -1098 584 -2167 994 -3393 1302 -1249 313
-2682 462 -4002 414z m-575 -7759 c2161 -83 4095 -349 5995 -826 634 -159
1099 -293 1640 -473 1287 -430 2292 -873 3377 -1492 209 -119 273 -165 382
-272 197 -194 327 -430 387 -707 26 -119 26 -420 1 -538 -121 -554 -518 -953
-1072 -1078 -111 -25 -350 -30 -480 -9 -214 33 -294 66 -655 266 -539 298
-781 420 -1262 635 -732 326 -1544 615 -2443 868 -1380 388 -2952 665 -4510
795 -775 65 -1185 86 -1978 102 -2347 45 -4666 -223 -6512 -753 -260 -74 -314
-86 -465 -98 -465 -38 -937 186 -1212 575 -108 153 -203 383 -233 565 -19 121
-19 328 0 448 76 465 400 871 836 1046 47 19 214 72 370 116 1707 490 3830
787 5999 840 401 10 1471 4 1835 -10z m-360 -5049 c1739 -88 3382 -348 4950
-786 1591 -444 3009 -1034 4325 -1798 340 -198 404 -241 505 -343 157 -158
262 -356 311 -586 24 -113 24 -324 0 -438 -43 -200 -132 -384 -257 -527 -151
-174 -364 -304 -589 -362 -109 -28 -314 -39 -429 -22 -194 29 -293 68 -537
213 -759 453 -1606 856 -2494 1188 -274 103 -916 314 -1230 404 -1618 467
-3272 721 -5045 776 -1404 44 -2882 -74 -4205 -335 -471 -93 -999 -222 -1415
-345 -237 -70 -300 -82 -445 -82 -527 -3 -956 323 -1116 847 -26 85 -28 101
-28 285 0 180 2 202 26 293 89 328 317 601 622 747 45 21 167 64 271 95 1095
328 2327 566 3565 690 456 45 794 68 1390 95 243 11 1557 4 1825 -9z m170
-4780 c2030 -117 3701 -470 5407 -1145 663 -262 1299 -573 2003 -979 310 -178
358 -212 451 -309 174 -183 264 -421 251 -668 -7 -140 -35 -242 -103 -377
-195 -391 -641 -582 -1071 -457 -104 30 -114 35 -398 202 -1816 1065 -3818
1678 -6095 1867 -444 37 -683 47 -1250 52 -887 8 -1529 -23 -2415 -118 -902
-96 -2005 -281 -2830 -476 -144 -34 -174 -37 -300 -38 -104 0 -159 5 -215 19
-291 73 -532 282 -638 556 -89 228 -83 493 16 711 102 227 324 425 552 493
125 38 871 193 1395 290 1063 197 2333 339 3440 386 274 11 1556 5 1800 -9z"/>
</g>
</svg>
